<svg width="512" height="512" viewBox="0 0 512 512" fill="none" xmlns="http://www.w3.org/2000/svg">
<path fill-rule="evenodd" clip-rule="evenodd" d="M239.302 60.932C238.02 61.4476 236.694 62.592 236.356 63.4734C235.438 65.868 239.06 69.3514 241.903 68.807C245.031 68.2081 244.73 68.7535 237.84 76.1714C229.986 84.6258 228.991 84.5673 214.094 74.76C207.657 70.5225 201.555 67.0555 200.535 67.0555C197.085 67.0555 191.878 69.5086 191.271 71.4183C190.467 73.9597 192.564 76.3009 195.646 76.3009C198.471 76.3009 198.509 74.9243 195.115 95.3053C193.5 105.004 193.259 105.595 190.806 105.881C188.522 106.148 187.446 104.958 181.878 96.0161C178.396 90.4237 175.409 85.3172 175.24 84.6679C175.072 84.0187 176.088 82.9 177.499 82.1799C182.441 79.66 180.43 73.2869 175.113 74.6233C171.252 75.5931 167.012 79.433 167.545 81.4762C167.806 82.4737 171.805 89.305 176.433 96.6582C183.591 108.033 184.681 110.337 183.738 112.101C182.25 114.885 182.352 117.347 184.093 120.689C185.445 123.283 185.331 123.775 182.416 127.88C180.697 130.304 178.979 132.633 178.599 133.057C178.22 133.48 173.838 129.412 168.861 124.015C158.154 112.405 157.413 110.353 158.952 96.5565C160.369 83.8482 158.849 81.4064 151.794 85.0593C149.697 86.1451 148.767 87.3963 148.767 89.1314C148.767 91.6718 151.948 94.3139 153.372 92.958C153.797 92.5542 153.951 95.0043 153.716 98.4035C153.413 102.77 152.59 105.529 150.906 107.808C149.597 109.581 148.811 111.496 149.161 112.063C149.843 113.168 127.237 131.773 125.212 131.773C124.546 131.773 124.226 130.964 124.502 129.975C124.778 128.986 125.987 123.786 127.19 118.419C130.132 105.275 130.208 105.064 132.002 105.064C134.508 105.064 139.531 100.989 139.531 98.9562C139.531 95.7151 136.899 94.3571 133.414 95.8024C128.074 98.0162 125.715 102.519 122.504 116.621C120.523 125.325 119.066 129.719 118.16 129.719C116.621 129.719 111.377 134.661 110.673 136.775C110.025 138.72 87.4229 142.485 85.582 140.956C83.6959 139.388 80.4287 141.346 78.4112 145.252C76.9726 148.037 76.9613 148.592 78.3107 150.101C79.149 151.037 81.0269 155.935 82.484 160.983C84.8565 169.208 84.9766 170.399 83.6395 172.443C81.5379 175.654 68.868 179.499 61.4673 179.171L55.7475 178.918L53.882 183.058C52.3612 186.435 52.2565 187.487 53.3145 188.763C54.0277 189.624 55.3012 190.327 56.1447 190.327C57.2457 190.327 57.493 190.98 57.021 192.639C56.6588 193.909 55.8337 197.145 55.1852 199.829C54.5377 202.514 53.7404 204.705 53.414 204.7C53.0877 204.695 46.6978 198.685 39.2131 191.345C31.7293 184.005 25.01 178 24.2825 178C22.4703 178 20.497 180.125 20.497 182.078C20.497 182.965 16.1102 188.064 10.7485 193.409C5.38682 198.754 1 203.581 1 204.136C1 205.796 9.50889 213.954 11.24 213.954C12.1225 213.954 16.9803 209.794 22.0362 204.709C27.0921 199.624 31.5354 195.464 31.9099 195.464C32.2845 195.464 32.8899 196.243 33.2552 197.197C33.7324 198.442 31.7991 201.12 26.3974 206.699C22.2599 210.972 18.0014 215.522 16.9331 216.81L14.9917 219.153L20.0147 224.258C22.7771 227.066 25.4656 229.363 25.989 229.363C26.5133 229.363 31.4348 224.944 36.9258 219.543C44.9575 211.644 47.0426 210.067 47.5855 211.485C48.3069 213.367 47.8646 213.949 37.1895 225.194C33.6708 228.9 30.7852 232.646 30.776 233.521C30.7514 235.757 38.1335 242.718 40.5296 242.718C41.6574 242.718 46.391 238.859 51.4582 233.81C59.2252 226.07 60.6115 225.081 62.0327 226.262C63.4776 227.462 62.5869 228.724 54.3961 237.085C49.2971 242.291 45.1248 247.135 45.1248 247.851C45.1248 249.533 53.6932 258.127 55.3699 258.127C56.0738 258.127 60.7234 253.85 65.7023 248.624C74.3148 239.582 74.8412 239.209 76.5621 240.905C78.285 242.602 77.9197 243.146 68.8598 252.396C60.6833 260.741 59.4971 262.383 60.4063 264.084C61.7916 266.674 68.4534 272.508 70.0255 272.508C70.7007 272.508 75.4446 268.329 80.5682 263.222C89.4763 254.341 89.9576 254.019 91.5902 255.824C93.2105 257.616 92.8267 258.181 84.09 266.886C79.0269 271.932 74.8833 276.821 74.8833 277.749C74.8833 279.372 83.2567 287.917 84.8463 287.917C85.2711 287.917 89.9032 283.647 95.1386 278.427L104.658 268.937L163.096 327.43L221.533 385.925L219.396 389.386C217.645 392.223 217.464 393.3 218.393 395.342C219.874 398.597 223.091 398.533 225.424 395.203C226.437 393.754 228.306 391.261 229.576 389.661C230.847 388.061 231.885 386.136 231.885 385.384C231.885 384.633 210.319 362.409 183.96 335.999L136.034 287.982L138.296 285.572C141.113 282.571 141.148 280.416 138.443 276.754L136.33 273.892L191.319 219.012C221.564 188.827 246.676 164.006 247.125 163.85C247.573 163.695 248.786 164.504 249.82 165.648C250.855 166.792 252.711 167.727 253.948 167.727C255.184 167.727 257.041 166.792 258.075 165.648C259.109 164.504 260.341 163.697 260.813 163.855C261.285 164.012 286.348 188.83 316.507 219.006L371.343 273.872L368.827 276.864C365.727 280.553 365.727 280.561 368.9 284.866L371.488 288.378L323.749 336.176C297.493 362.465 276.024 384.666 276.043 385.512C276.092 387.857 280.791 392.698 283.019 392.698C285.609 392.698 287.67 390.128 287.034 387.692C286.647 386.211 300.408 371.864 345.727 326.501L404.925 267.247L414.094 276.645C419.137 281.814 424.126 286.51 425.179 287.08C426.765 287.939 427.958 287.266 432.106 283.176C434.861 280.459 437.117 277.878 437.117 277.441C437.117 277.004 432.497 271.845 426.85 265.975C417.872 256.644 416.785 255.137 418.189 253.971C419.572 252.823 421.177 254.017 429.756 262.573C435.236 268.038 440.423 272.508 441.283 272.508C442.984 272.508 451.483 264.329 451.483 262.691C451.483 262.137 446.879 257.091 441.251 251.478C431.538 241.792 431.105 241.178 432.725 239.385C434.356 237.58 434.888 237.952 444.771 247.812C450.457 253.485 455.582 258.127 456.161 258.127C457.756 258.127 465.849 249.527 465.849 247.833C465.849 247.018 461.36 241.838 455.872 236.324C446.412 226.818 445.987 226.206 447.672 224.521C449.356 222.834 449.966 223.259 459.462 232.73C464.971 238.223 470.182 242.718 471.042 242.718C472.743 242.718 481.241 234.539 481.241 232.9C481.241 232.346 476.664 227.327 471.069 221.748C461.769 212.472 459.532 208.818 463.156 208.818C463.812 208.818 468.949 213.441 474.571 219.091C480.194 224.741 485.159 229.363 485.607 229.363C487.203 229.363 495.608 220.851 495.608 219.234C495.608 218.327 490.953 212.909 485.263 207.194C475.361 197.247 474.997 196.725 476.739 194.982C478.48 193.238 478.991 193.605 488.7 203.557C494.278 209.276 499.671 213.954 500.685 213.954C502.364 213.954 511 205.682 511 204.074C511 202.833 491.142 183.136 489.89 183.136C489.214 183.136 487.904 181.981 486.98 180.568C486.055 179.156 484.55 178 483.633 178C482.717 178 460.316 199.612 433.854 226.025C407.391 252.439 385.403 274.166 384.991 274.31C384.58 274.454 355.503 245.778 320.378 210.586L256.513 146.6V140.277V133.954L261.234 133.245C263.832 132.855 268.975 132.779 272.664 133.075L279.372 133.614L302.583 156.834C315.35 169.605 326.263 180.055 326.835 180.055C327.406 180.055 332.02 175.877 337.088 170.771C346.07 161.721 346.398 161.503 350.128 162.126C358.312 163.492 365.166 158.702 366.032 151.012C367.51 137.884 352.729 130.885 343.898 140.531C340.525 144.216 340.416 144.588 340.914 150.799L341.431 157.244L334.101 164.534L326.77 171.823L307.803 152.756C286.891 131.733 282.084 127.493 278.759 127.138C277.53 127.007 272.021 126.84 266.518 126.768L256.513 126.637V120.987V115.337H269.701H282.888L286.376 118.604C288.294 120.4 295.104 126.897 301.509 133.041C313.072 144.132 316.214 145.859 316.844 141.472C317.065 139.939 313.027 135.332 301.771 124.275L286.397 109.173H271.455H256.513V103.523V97.8734H271.937H287.362L300.651 110.845C315.687 125.521 313.923 125.063 322.964 116.632C327.086 112.787 327.619 112.586 332.438 113.049C338.689 113.65 342.196 111.683 344.435 106.318C348.359 96.917 339.161 87.2166 330.003 91.0976C324.663 93.3617 322.756 96.3377 322.6 102.649C322.479 107.543 322.013 108.742 319.044 111.808C317.165 113.749 315.371 115.324 315.059 115.308C314.746 115.293 308.719 109.765 301.664 103.024L288.837 90.7678L272.703 90.7257L256.57 90.6826L256.284 76.044C256.013 62.0897 255.899 61.3911 253.857 61.0994C252.679 60.9309 251.148 61.4774 250.455 62.3147C249.353 63.6439 248.942 63.5854 247.209 61.8503C245.066 59.7054 242.962 59.4609 239.302 60.932ZM261.29 61.1333C258.2 63.4416 259.442 67.2763 263.629 68.357C269.681 69.9195 273.785 66.4751 271.037 62.14C269.763 60.1297 263.498 59.4825 261.29 61.1333ZM215.027 64.5603C211.814 67.7776 213.886 71.1645 219.068 71.1645C223.743 71.1645 226.188 69.0278 225.347 65.6748C224.753 63.3039 224.138 62.9464 220.651 62.9464C218.373 62.9464 215.943 63.6439 215.027 64.5603ZM283.398 64.1791C280.432 67.149 284.269 71.1645 290.072 71.1645C292.788 71.1645 293.537 70.6797 294.063 68.583C294.434 67.1027 294.17 65.3502 293.443 64.474C291.925 62.6413 285.134 62.442 283.398 64.1791ZM306.45 68.5748C303.179 71.8497 304.731 74.4847 310.685 75.7595C314.45 76.5659 317.056 75.1062 317.056 72.1918C317.056 68.2358 309.397 65.6245 306.45 68.5748ZM248.579 121.127C244.664 124.299 241.245 126.077 240.498 125.328C240.153 124.984 238.29 117.957 236.355 109.715C233.131 95.9709 232.97 94.542 234.415 92.4772C235.281 91.2383 235.99 89.231 235.99 88.0168C235.99 86.7204 239.064 82.3874 243.43 77.5315L250.869 69.2549L251.144 94.0397L251.419 118.826L248.579 121.127ZM222.217 90.0231C222.553 93.7777 222.385 93.9708 212.323 101.468C202.024 109.14 199.061 110.091 199.036 105.725C199.029 104.514 200.023 96.729 201.244 88.4257L203.465 73.3269L212.67 79.7658C221.155 85.7014 221.901 86.5026 222.217 90.0231ZM329.092 74.3819C326.193 76.006 326.878 80.1295 330.345 81.9241C334.432 84.0403 337.291 83.8965 338.566 81.5111C339.44 79.8768 339.126 76.3009 338.108 76.3009C337.955 76.3009 336.263 75.6455 334.348 74.8442C331.961 73.8457 330.308 73.7009 329.092 74.3819ZM349.539 84.3433C348.606 85.3767 347.841 86.6916 347.841 87.2659C347.841 90.6528 357.491 94.3314 359.217 91.602C360.937 88.8828 360.145 86.5365 356.82 84.5077C352.697 81.9909 351.686 81.9683 349.539 84.3433ZM369.849 95.8795C367.649 98.3131 368.351 100.086 372.841 103.443C375.821 105.67 377.926 105.136 380.096 101.604C380.993 100.146 380.541 99.2787 377.6 96.8215C373.303 93.2312 372.348 93.1151 369.849 95.8795ZM231.226 109.43C232.809 116.351 234.348 123.055 234.646 124.325C235.062 126.106 234.735 126.637 233.223 126.637C231.414 126.637 205.496 119.715 204.06 118.849C203.712 118.64 203.648 117.321 203.915 115.918C204.261 114.107 207.683 110.973 215.72 105.107C221.945 100.564 227.332 96.8461 227.692 96.8461C228.052 96.8461 229.641 102.509 231.226 109.43ZM388.865 108.985C386.904 110.575 386.74 111.185 387.761 113.094C388.42 114.328 390.076 116.068 391.438 116.963C397.561 120.98 401.027 113.763 395.085 109.366C391.428 106.66 391.712 106.677 388.865 108.985ZM112.436 111.126C107.695 116.08 110.705 120.465 116.657 117.276C120.122 115.42 121.397 112.749 120.034 110.201C118.491 107.313 115.766 107.645 112.436 111.126ZM150.699 134.402C150.095 142.844 149.232 150.141 148.78 150.617C148.328 151.094 143.638 149.245 138.357 146.508C125.309 139.745 125.35 139.256 139.955 127.458C146.114 122.483 151.298 118.556 151.475 118.733C151.651 118.909 151.302 125.961 150.699 134.402ZM170.485 133.314C174.841 138.647 174.177 140.427 165.695 146.157C154.906 153.445 154.571 153.147 155.4 137.02C155.766 129.896 156.314 122.767 156.618 121.176L157.169 118.282L162.568 124.258C165.538 127.544 169.101 131.619 170.485 133.314ZM95.1191 126.557C91.6045 130.737 92.3598 134.065 96.722 133.626C100.75 133.221 104.594 128.424 102.969 125.829C101.12 122.877 97.9657 123.169 95.1191 126.557ZM218.389 128.067C228.404 130.946 234.946 133.391 236.469 134.823C238.063 136.322 239.592 140.005 241.07 145.906L243.285 154.745L239.291 158.742L235.298 162.74L222.817 158.88C215.013 156.465 210.336 154.504 210.336 153.647C210.336 152.892 209.248 151.778 207.917 151.171C205.87 150.237 205.031 148.156 202.441 137.582C200.758 130.715 199.564 124.749 199.789 124.325C200.462 123.051 202.053 123.37 218.389 128.067ZM405.7 125.036C404.725 127.579 405.711 129.934 408.678 132.149C410.894 133.804 411.932 134.035 413.296 133.175C415.87 131.552 415.927 129.426 413.479 126.311C411.118 123.305 406.644 122.572 405.7 125.036ZM324.573 126.081C319.749 128.182 317.714 131.901 318.341 137.468C319.563 148.324 333.079 151.91 338.602 142.842C339.728 140.992 340.652 138.392 340.654 137.065C340.66 133.191 337.539 127.696 334.414 126.078C330.873 124.244 328.789 124.245 324.573 126.081ZM249.888 148.09C247.726 150.255 246.844 148.961 244.817 140.66C242.803 132.411 243.101 131.014 247.544 127.908L250.869 125.583L251.164 136.051C251.398 144.364 251.135 146.843 249.888 148.09ZM197.398 137.68C198.873 143.753 200.079 149.303 200.077 150.013C200.072 152.145 183.846 140.782 183.18 138.18C182.291 134.713 188.417 126.73 192.009 126.677C194.608 126.639 194.826 127.083 197.398 137.68ZM381.625 129.64C377.151 134.118 377.589 137.587 383.454 144.118L388.282 149.493L385.25 152.047C383.582 153.451 374.001 162.726 363.959 172.657L345.702 190.714L354.988 200.05L364.275 209.386L358.705 214.893C355.642 217.922 352.521 220.166 351.77 219.881C349.408 218.98 345.789 220.956 345.789 223.147C345.789 225.087 347.395 225.929 351.946 226.374C355.348 226.708 356.485 226.034 362.847 219.92L369.464 213.558L378.61 222.671C383.641 227.683 387.558 232.104 387.317 232.495C387.075 232.887 385.484 233.486 383.778 233.828C380.172 234.55 376.583 239.639 376.578 244.038C376.569 249.949 382.39 255.045 389.148 255.045C393.632 255.045 399.149 249.66 399.149 245.283C399.149 242.821 401.607 239.812 413.086 228.214C425.233 215.943 426.886 213.876 425.954 212.135C424.282 209.005 420.536 207.093 416.324 207.221C413.159 207.316 411.81 206.667 408.835 203.617C406.839 201.571 404.42 198.354 403.46 196.469C402.5 194.584 400.487 192.141 398.987 191.041C396.309 189.076 396.188 189.075 392.317 190.968C388.886 192.645 388.332 193.41 388.049 196.865C387.571 202.695 390.991 206.123 396.55 205.386C400.273 204.891 401.036 205.234 405.484 209.399C409.467 213.128 411.053 213.954 414.234 213.954H418.12L408.378 223.657L398.636 233.358L376.684 211.985L354.733 190.612L374.889 170.796C388.636 157.281 395.044 150.281 395.044 148.782C395.044 147.532 393.049 144.623 390.427 142.046C387.887 139.551 385.809 136.68 385.809 135.669C385.809 133.086 389.438 133.315 391.33 136.017C393.022 138.437 395.697 138.053 396.777 135.234C397.689 132.857 390.821 126.637 387.285 126.637C385.713 126.637 383.397 127.865 381.625 129.64ZM333.464 133.301C335.286 135.499 333.953 139.444 330.919 140.827C328.712 141.834 328.002 141.704 326.276 139.976C322.544 136.24 324.272 131.773 329.45 131.773C330.961 131.773 332.767 132.46 333.464 133.301ZM266.85 140.644C263.646 144.72 264.054 149.519 267.88 152.741C273.37 157.365 280.477 155.801 283.133 149.384C284.165 146.887 284.099 145.82 282.75 143.209C280.708 139.255 278.289 137.937 273.073 137.937C269.87 137.937 268.512 138.526 266.85 140.644ZM421.765 141.483C420.188 143.385 421.093 146.231 424.211 149.163C426.236 151.067 427.034 151.268 428.811 150.315C431.539 148.854 431.546 146.151 428.833 142.698C426.473 139.695 423.649 139.21 421.765 141.483ZM358.872 144.825C360.993 147.674 360.461 153.015 357.874 154.828C354.733 157.03 351.994 156.831 349.189 154.194C346.003 151.197 345.969 145.849 349.124 143.592C351.874 141.624 356.97 142.268 358.872 144.825ZM112.203 144.357C109.757 148.439 90.9098 168.768 90.2264 168.061C89.7749 167.595 88.2654 163.284 86.8709 158.482C84.8627 151.566 84.5969 149.474 85.5912 148.421C86.2819 147.691 91.6589 146.238 97.5398 145.192C110.971 142.807 113.208 142.68 112.203 144.357ZM277.503 144.983C278.428 147.899 277.077 150.264 274.486 150.264C271.47 150.264 269.504 147.846 270.351 145.177C271.239 142.372 276.63 142.227 277.503 144.983ZM188.057 149.432C195.108 154.066 198.022 157.286 198.022 160.445C198.022 161.352 174.908 176.973 173.566 176.973C173.087 176.973 169.61 173.282 165.838 168.772C160.479 162.362 159.11 160.062 159.573 158.243C160.123 156.082 176.539 144.126 178.979 144.108C179.51 144.103 183.595 146.499 188.057 149.432ZM145.348 155.82C145.444 155.874 145.821 157.111 146.186 158.567C146.769 160.892 146.058 161.866 140.373 166.527C136.127 170.007 132.942 171.836 131.128 171.836C129.507 171.836 127.753 172.703 126.896 173.929C125.47 175.968 125.072 175.99 111.189 174.78C103.355 174.097 96.646 173.089 96.2787 172.537C95.9123 171.986 100.299 166.059 106.027 159.366C114.993 148.893 116.872 147.195 119.521 147.175C121.214 147.162 123.261 146.731 124.07 146.22C125.304 145.438 133.287 149.039 145.348 155.82ZM286.796 155.387C284.975 157.402 285.247 157.752 301.255 173.917L317.569 190.392L317.215 195.528C316.785 201.772 318.752 205.263 323.912 207.421C328.579 209.373 332.428 208.483 336.152 204.592C338.529 202.109 339.119 200.569 339.119 196.852C339.119 192.888 338.619 191.766 335.687 189.144C332.798 186.559 331.531 186.12 327.662 186.358L323.067 186.64L306.142 170.27C296.835 161.266 289.092 153.772 288.937 153.616C288.781 153.461 287.818 154.258 286.796 155.387ZM434.996 160.665C434.05 162.435 434.198 163.342 435.781 165.465C438.74 169.433 440.76 170.418 442.674 168.827C444.754 167.098 444.743 164.222 442.643 161.014C440.571 157.848 436.599 157.667 434.996 160.665ZM66.9357 160.793C64.2328 164.21 63.4468 166.824 64.6761 168.307C67.8603 172.148 74.948 166.622 73.34 161.551C72.6063 159.236 68.5478 158.755 66.9357 160.793ZM220.085 163.148C224.6 164.57 228.955 165.968 229.762 166.255C230.792 166.622 229.438 168.592 225.225 172.854C221.921 176.196 218.823 178.686 218.341 178.387C217.497 177.865 209.31 162.17 209.31 161.073C209.31 160.068 211.868 160.56 220.085 163.148ZM402.433 161.769C400.164 164.041 401.163 166.213 407.253 172.245C412.509 177.453 413.209 178.595 412.585 180.945C412.19 182.433 411.937 184.343 412.022 185.191C412.107 186.038 412.247 187.505 412.333 188.45C412.418 189.395 413.91 191.592 415.646 193.33C422.298 199.989 433.469 196.039 434.736 186.582C435.782 178.769 431.046 173.891 422.416 173.891C418.434 173.891 417.525 173.337 411.463 167.214C407.827 163.541 404.584 160.537 404.258 160.537C403.931 160.537 403.11 161.091 402.433 161.769ZM161.883 171.531C165.428 175.806 168.199 179.434 168.04 179.592C167.526 180.104 139.439 176.196 138.762 175.517C138.401 175.157 139.916 173.372 142.128 171.551C144.341 169.731 147.317 167.216 148.741 165.963C152.942 162.267 154.881 163.089 161.883 171.531ZM209.822 173.374L214.953 183.108L210.634 187.43L206.316 191.754L193.19 187.343C185.971 184.917 179.413 182.571 178.615 182.13C177.591 181.563 181.044 178.736 190.41 172.473C197.694 167.603 203.888 163.623 204.173 163.63C204.458 163.636 207.001 168.021 209.822 173.374ZM124.908 181.013C127.198 181.136 126.282 183.167 121.377 188.855C114.477 196.858 112.426 196.646 102.79 186.933C98.6953 182.808 95.5634 179.212 95.8302 178.945C96.0981 178.678 102.461 179.018 109.971 179.701C117.481 180.385 124.203 180.975 124.908 181.013ZM447.584 179.233C444.836 181.984 448.025 189.3 451.971 189.3C455.829 189.3 456.778 186.459 454.449 181.887C452.422 177.912 449.884 176.93 447.584 179.233ZM88.8411 182.109C89.977 182.109 94.1894 185.539 98.6183 190.07C105.365 196.974 106.405 198.527 106.442 201.756C106.479 205.062 105.603 206.345 98.6358 213.19C86.6349 224.981 87.4055 225.254 76.0716 205.181C70.8207 195.882 66.673 187.502 66.8557 186.561C67.0722 185.443 70.0306 183.887 75.3964 182.072C82.4215 179.695 83.8396 179.497 85.2259 180.702C86.1167 181.475 87.7441 182.109 88.8411 182.109ZM156.976 183.47C162.47 184.15 166.59 185.125 166.418 185.705C165.744 187.952 147.062 209.116 144.648 210.366C142.327 211.568 140.968 211.24 131.155 207.117C123.658 203.966 120.081 201.918 119.729 200.572C119.102 198.171 130.561 185.191 133.307 185.191C134.298 185.191 135.958 184.251 136.997 183.102C138.532 181.404 139.667 181.13 143.056 181.638C145.351 181.982 151.614 182.807 156.976 183.47ZM178.522 200.857L184.53 213.441L179.621 218.42L174.711 223.398L163.534 219.52C153.573 216.064 150.873 214.661 150.84 212.927C150.826 212.172 171.292 188.273 171.953 188.273C172.262 188.273 175.218 193.935 178.522 200.857ZM191.202 191.989L202.344 195.706L195.309 202.83L188.274 209.955L183.466 199.884C178.423 189.319 178.046 188.273 179.293 188.273C179.715 188.273 185.074 189.945 191.202 191.989ZM72.5355 209.046C82.1146 225.919 82.4758 227.254 77.4692 227.293C76.2758 227.303 71.7864 223.671 66.595 218.498L57.7526 209.688L59.8583 201.034C61.0158 196.276 62.2154 192.385 62.5232 192.389C62.8311 192.393 67.3359 199.888 72.5355 209.046ZM200.668 227.18L165.858 262.087L167.146 270.748C168.483 279.743 168.013 286.406 165.546 293.455C164.435 296.633 164.406 297.791 165.409 299.105C166.103 300.014 182.285 316.435 201.369 335.596L236.068 370.433L241.238 369.239C247.822 367.717 260.017 367.704 266.542 369.212L271.596 370.38L306.216 335.668C337.409 304.392 340.778 300.691 340.239 298.289C337.122 284.365 337.065 276.114 340.029 267.697C340.837 265.402 341.076 262.925 340.605 261.722C340.161 260.592 324.564 244.457 305.943 225.865L272.088 192.062L265.896 193.377C260.003 194.629 246.197 194.377 238.555 192.878C235.635 192.305 233.693 194.062 200.668 227.18ZM331.194 193.981C332.449 194.861 333.475 196.214 333.475 196.989C333.475 199.009 330.578 201.627 328.344 201.627C326.344 201.627 323.213 199.075 323.213 197.445C323.213 196.29 326.998 192.382 328.115 192.382C328.554 192.382 329.94 193.102 331.194 193.981ZM397.93 197.79C398.338 199.913 395.377 201.344 393.813 199.778C392.249 198.212 393.678 195.248 395.799 195.657C396.782 195.846 397.741 196.806 397.93 197.79ZM249.843 203.286C253.794 203.629 259.79 203.392 263.168 202.759L269.308 201.608L300.419 232.693C329.908 262.155 331.5 263.938 330.922 266.858C329.506 274.024 329.174 289.134 330.333 293.739L331.54 298.538L300.44 329.732C275.142 355.108 268.957 360.808 267.288 360.288C262.854 358.909 248.2 358.581 243.534 359.757L238.721 360.97L206.153 328.368C175.599 297.78 173.646 295.606 174.563 293.192C176.054 289.266 176.712 275.645 175.661 270.454L174.726 265.831L206.641 233.693C232.072 208.083 238.972 201.667 240.608 202.108C241.736 202.413 245.892 202.943 249.843 203.286ZM133.752 213.566C137.629 215.165 141.015 217.033 141.277 217.718C141.539 218.403 138.292 223.541 134.06 229.135C126.827 238.696 126.176 239.277 123.198 238.841C121.272 238.557 119.01 239.044 117.426 240.084C114.884 241.75 114.584 241.662 105.21 236.479C96.3854 231.599 95.5686 230.884 95.2002 227.721C94.8349 224.593 95.5101 223.568 102.565 216.547C106.929 212.204 111.221 208.811 112.361 208.803C113.477 208.793 115.048 208.37 115.852 207.861C117.329 206.925 118.739 207.374 133.752 213.566ZM152.373 231.553L157.166 240.914L152.196 246.007L147.227 251.1L141.07 250.442C131.32 249.398 130.751 249.138 130.482 245.586C130.286 243.016 131.77 240.387 138.221 231.889C142.61 226.106 146.511 221.558 146.89 221.783C147.269 222.009 149.736 226.406 152.373 231.553ZM162.107 224.344C165.211 225.422 168.408 226.547 169.212 226.842C170.265 227.231 169.418 228.661 166.175 231.967C163.702 234.49 161.398 236.554 161.053 236.554C160.391 236.554 152.871 222.837 152.871 221.63C152.871 221.243 153.679 221.253 154.667 221.655C155.655 222.055 159.003 223.265 162.107 224.344ZM84.0869 233.611C86.0099 235.035 87.8621 235.593 89.3634 235.199C91.0083 234.769 94.6563 236.26 102.007 240.371C116.277 248.351 116.846 249.601 107.177 251.749L101.158 253.086L90.3352 242.251C79.8879 231.794 77.8817 229.018 84.0869 233.611ZM391.955 241.163C394.97 244.8 390.623 249.897 385.809 248.368C383.472 247.625 382.956 242.903 384.988 240.869C386.689 239.165 390.43 239.324 391.955 241.163ZM141.519 255.664C141.772 255.918 139.235 258.904 135.881 262.3L129.783 268.476L129.073 264.585C128.682 262.445 128.335 259.132 128.303 257.224L128.243 253.753L134.651 254.478C138.175 254.877 141.265 255.412 141.519 255.664ZM122.755 256.398C123.62 257.265 124.329 274.563 123.497 274.563C122.979 274.563 118.678 270.661 113.94 265.894L105.325 257.225L108.319 256.559C109.965 256.192 111.774 255.714 112.338 255.496C113.408 255.083 122.201 255.844 122.755 256.398ZM247.645 257.052C239.945 258.891 231.909 265.779 228.687 273.302C220.261 292.98 238.453 315.326 259.058 310.609C271.364 307.792 281.109 295.9 281.135 283.67C281.157 273.3 272.029 261.115 261.782 257.835C255.959 255.97 252.889 255.8 247.645 257.052ZM260.889 266.602C264.595 268.676 268.901 272.812 270.458 275.796C272.336 279.396 272.315 288.254 270.419 291.925C263.398 305.516 243.915 305.565 237.007 292.008C232.35 282.869 236.645 270.9 246.088 266.698C249.753 265.068 258.05 265.013 260.889 266.602ZM246.277 281.706C245.462 283.229 245.462 284.388 246.277 285.91C247.252 287.733 248.229 287.972 253.646 287.708C260.6 287.369 263.146 285.402 261.019 282.011C260.188 280.685 258.25 280.133 253.646 279.909C248.229 279.645 247.252 279.883 246.277 281.706ZM366.03 323.659C350.946 338.797 338.606 351.539 338.606 351.975C338.606 352.413 339.084 353.664 339.668 354.757C342.129 359.362 344.677 357.395 372.751 329.221C387.835 314.083 400.175 301.341 400.175 300.904C400.175 300.466 399.697 299.215 399.113 298.122C396.651 293.518 394.103 295.484 366.03 323.659ZM386.579 332.929C379.383 340.166 373.495 346.907 373.495 347.91C373.495 350.088 385.218 362.581 388.131 363.508C389.767 364.026 392.928 361.408 403.898 350.449C411.907 342.448 417.62 335.927 417.62 334.785C417.62 331.964 404.943 319.762 402.017 319.767C400.368 319.77 395.742 323.714 386.579 332.929ZM100.445 327.86C96.5455 331.75 93.3541 335.569 93.3541 336.35C93.3541 338.466 120.277 364.962 122.427 364.962C125.347 364.962 137.479 352.657 137.479 349.696C137.479 347.856 133.956 343.744 124.028 333.996C116.629 326.733 109.893 320.79 109.056 320.79C108.22 320.79 104.345 323.971 100.445 327.86ZM405.333 332.632L407.77 335.228L399.12 343.932C394.364 348.718 390.029 352.635 389.49 352.635C388.949 352.635 387.424 351.617 386.102 350.374L383.697 348.112L392.684 339.074C397.627 334.102 401.947 330.035 402.284 330.035C402.62 330.035 403.992 331.203 405.333 332.632ZM124.893 352.347L122.086 355.157L113.364 346.471C108.567 341.694 104.642 337.342 104.642 336.802C104.642 336.26 105.661 334.731 106.908 333.404L109.172 330.989L118.436 340.263L127.701 349.537L124.893 352.347ZM245.655 403.329C245.364 404.092 245.262 407.835 245.432 411.646C245.736 418.537 245.762 418.592 249.864 421.012L253.989 423.446L258.329 420.855L262.67 418.264V410.727C262.67 401.964 262.646 401.944 252.806 401.944C248.198 401.944 246.026 402.365 245.655 403.329ZM286.895 403.569C284.37 410.154 289.097 417.195 293.25 413.038C294.842 411.444 294.842 404.771 293.25 403.176C291.491 401.416 287.628 401.654 286.895 403.569ZM214.099 408.792C213.243 409.648 213.203 415.605 214.037 417.782C214.4 418.726 215.859 419.407 217.519 419.407C220.519 419.407 221.624 417.886 221.624 413.757C221.624 409.656 220.516 408.107 217.581 408.107C216.041 408.107 214.475 408.415 214.099 408.792ZM281.78 427.689C279.145 432.155 280.24 436.085 283.999 435.651C287.764 435.217 291.511 428.692 289.434 426.186C287.23 423.527 283.844 424.191 281.78 427.689ZM222.393 429.762C219.884 431.225 220.155 434.039 223.114 437.234C225.906 440.25 228.935 440.732 230.818 438.461C232.464 436.476 231.341 433.291 228.095 430.734C225.089 428.367 224.854 428.327 222.393 429.762ZM264.979 441.996C261.153 444.331 260.805 446.065 263.642 448.635C265.553 450.366 265.813 450.362 269.542 448.537C273.686 446.512 274.921 443.894 272.891 441.444C271.211 439.417 268.944 439.575 264.979 441.996ZM240.069 443.579C237.909 446.184 240.334 449.985 244.676 450.799C248.748 451.565 251.382 450.102 251.382 447.076C251.382 442.926 242.808 440.275 240.069 443.579Z" fill="#C90A37"/>
</svg>
